<?xml version="1.0" standalone="no"?>
<!DOCTYPE svg PUBLIC "-//W3C//DTD SVG 20010904//EN"
 "http://www.w3.org/TR/2001/REC-SVG-20010904/DTD/svg10.dtd">
<svg version="1.0" xmlns="http://www.w3.org/2000/svg"
 width="512.000000pt" height="512.000000pt" viewBox="0 0 512.000000 512.000000"
 preserveAspectRatio="xMidYMid meet">
<metadata>
Created by potrace 1.16, written by Peter Selinger 2001-2019
</metadata>
<g transform="translate(0.000000,512.000000) scale(0.100000,-0.100000)"
fill="#000000" stroke="none">
<path d="M920 2700 c-440 -880 -800 -1602 -800 -1605 0 -3 136 -4 303 -3 l302
3 500 995 500 995 232 -467 232 -468 306 0 c168 0 305 2 305 5 0 3 -57 118
-126 257 l-126 252 794 -787 793 -787 385 0 385 0 -803 803 -802 802 802 803
803 802 -385 0 -385 0 -802 -802 -801 -801 -401 801 c-221 441 -403 802 -406
802 -3 0 -365 -720 -805 -1600z"/>
<path d="M2460 1625 c0 -3 60 -124 132 -270 l133 -265 302 0 c167 0 303 3 303
8 -1 4 -60 124 -133 267 l-132 260 -302 3 c-167 1 -303 0 -303 -3z"/>
</g>
</svg>
