<?xml version="1.0" standalone="no"?>
<!DOCTYPE svg PUBLIC "-//W3C//DTD SVG 20010904//EN"
 "http://www.w3.org/TR/2001/REC-SVG-20010904/DTD/svg10.dtd">
<svg version="1.0" xmlns="http://www.w3.org/2000/svg"
 width="512.000000pt" height="512.000000pt" viewBox="0 0 512.000000 512.000000"
 preserveAspectRatio="xMidYMid meet">
<metadata>
Created by potrace 1.11, written by Peter Selinger 2001-2013
</metadata>
<g transform="translate(0.000000,512.000000) scale(0.100000,-0.100000)"
fill="#000000" stroke="none">
<path d="M3342 3498 c-441 -439 -805 -798 -809 -798 -5 0 -187 358 -406 795
-219 437 -401 795 -403 795 -2 0 -145 -282 -317 -627 -173 -346 -319 -637
-325 -648 -6 -11 -187 -372 -401 -802 -214 -430 -394 -790 -400 -800 -5 -10
-44 -87 -86 -170 l-75 -153 298 0 298 0 504 1005 505 1005 232 -467 c128 -256
236 -469 242 -472 11 -7 579 -6 587 1 3 3 -36 88 -87 189 -51 101 -110 220
-132 264 l-39 80 341 -340 c188 -187 552 -548 808 -802 l467 -463 376 0 375 0
-265 265 c-146 146 -505 505 -797 798 -293 293 -533 537 -533 542 0 6 356 365
790 798 435 434 792 792 795 797 2 4 -164 7 -369 7 l-373 0 -801 -799z"/>
<path d="M2502 1622 c-18 -2 -32 -7 -30 -11 2 -4 60 -123 130 -264 l128 -257
300 0 299 0 -130 258 c-72 141 -135 261 -139 266 -8 8 -483 15 -558 8z"/>
</g>
</svg>
